<mxfile host="app.diagrams.net" modified="2021-04-13T05:52:34.099Z" agent="5.0 (Windows)" etag="hbTkh8JC5W38E6RCfjxY" version="14.5.10" type="github" pages="3">
  <diagram id="C5RBs43oDa-KdzZeNtuy" name="Page-1">
    <mxGraphModel dx="1695" dy="489" grid="1" gridSize="10" guides="1" tooltips="1" connect="1" arrows="1" fold="1" page="1" pageScale="1" pageWidth="827" pageHeight="1169" background="none" math="0" shadow="0">
      <root>
        <mxCell id="WIyWlLk6GJQsqaUBKTNV-0" />
        <mxCell id="WIyWlLk6GJQsqaUBKTNV-1" parent="WIyWlLk6GJQsqaUBKTNV-0" />
        <mxCell id="madsNF5-9-t_qONxIqkp-28" style="edgeStyle=orthogonalEdgeStyle;rounded=0;orthogonalLoop=1;jettySize=auto;html=1;exitX=0;exitY=0.5;exitDx=0;exitDy=0;entryX=0.75;entryY=0;entryDx=0;entryDy=0;fontFamily=Times New Roman;" parent="WIyWlLk6GJQsqaUBKTNV-1" source="madsNF5-9-t_qONxIqkp-3" target="madsNF5-9-t_qONxIqkp-21" edge="1">
          <mxGeometry relative="1" as="geometry" />
        </mxCell>
        <mxCell id="5NZmGxR7Z9d4b-Xke_Fb-16" style="edgeStyle=orthogonalEdgeStyle;rounded=0;orthogonalLoop=1;jettySize=auto;html=1;entryX=0.5;entryY=0;entryDx=0;entryDy=0;fontFamily=Times New Roman;" parent="WIyWlLk6GJQsqaUBKTNV-1" source="madsNF5-9-t_qONxIqkp-3" target="5NZmGxR7Z9d4b-Xke_Fb-38" edge="1">
          <mxGeometry relative="1" as="geometry">
            <mxPoint x="740" y="340" as="targetPoint" />
          </mxGeometry>
        </mxCell>
        <mxCell id="madsNF5-9-t_qONxIqkp-3" value="Is the photo bright&lt;div&gt;&amp;amp; clear with no page folding/warping?&amp;nbsp; &lt;br&gt;&lt;/div&gt;" style="rhombus;whiteSpace=wrap;shadow=0;fontFamily=Times New Roman;fontSize=12;align=center;strokeWidth=1;spacing=6;spacingTop=4;verticalAlign=middle;textDirection=ltr;html=1;horizontal=1;fillColor=#dae8fc;strokeColor=#6c8ebf;labelPosition=center;verticalLabelPosition=middle;spacingLeft=1;" parent="WIyWlLk6GJQsqaUBKTNV-1" vertex="1">
          <mxGeometry x="510" y="250" width="142.5" height="142.5" as="geometry" />
        </mxCell>
        <mxCell id="madsNF5-9-t_qONxIqkp-12" style="edgeStyle=orthogonalEdgeStyle;rounded=0;orthogonalLoop=1;jettySize=auto;html=1;entryX=0.5;entryY=0;entryDx=0;entryDy=0;fontFamily=Times New Roman;" parent="WIyWlLk6GJQsqaUBKTNV-1" source="madsNF5-9-t_qONxIqkp-9" target="madsNF5-9-t_qONxIqkp-10" edge="1">
          <mxGeometry relative="1" as="geometry" />
        </mxCell>
        <mxCell id="madsNF5-9-t_qONxIqkp-13" style="edgeStyle=orthogonalEdgeStyle;rounded=0;orthogonalLoop=1;jettySize=auto;html=1;exitX=1;exitY=0.5;exitDx=0;exitDy=0;entryX=0.5;entryY=0;entryDx=0;entryDy=0;fontFamily=Times New Roman;" parent="WIyWlLk6GJQsqaUBKTNV-1" source="madsNF5-9-t_qONxIqkp-9" target="madsNF5-9-t_qONxIqkp-3" edge="1">
          <mxGeometry relative="1" as="geometry" />
        </mxCell>
        <mxCell id="madsNF5-9-t_qONxIqkp-9" value="&lt;br&gt;&lt;br&gt;&lt;p class=&quot;MsoNormal&quot; style=&quot;text-align: center&quot; align=&quot;center&quot;&gt;&lt;span lang=&quot;EN-IN&quot;&gt;Is it scanned?&lt;/span&gt;&lt;/p&gt;&lt;br&gt;&lt;br&gt;" style="rhombus;whiteSpace=wrap;html=1;shadow=0;fontFamily=Times New Roman;fontSize=12;align=center;strokeWidth=1;spacing=6;spacingTop=-4;fillColor=#dae8fc;strokeColor=#6c8ebf;" parent="WIyWlLk6GJQsqaUBKTNV-1" vertex="1">
          <mxGeometry x="324" y="100" width="132.5" height="130" as="geometry" />
        </mxCell>
        <mxCell id="madsNF5-9-t_qONxIqkp-27" style="edgeStyle=orthogonalEdgeStyle;rounded=0;orthogonalLoop=1;jettySize=auto;html=1;exitX=1;exitY=0.5;exitDx=0;exitDy=0;entryX=0.25;entryY=0;entryDx=0;entryDy=0;fontFamily=Times New Roman;" parent="WIyWlLk6GJQsqaUBKTNV-1" source="madsNF5-9-t_qONxIqkp-10" target="madsNF5-9-t_qONxIqkp-21" edge="1">
          <mxGeometry relative="1" as="geometry" />
        </mxCell>
        <mxCell id="5NZmGxR7Z9d4b-Xke_Fb-6" style="edgeStyle=orthogonalEdgeStyle;rounded=0;orthogonalLoop=1;jettySize=auto;html=1;exitX=0;exitY=0.5;exitDx=0;exitDy=0;entryX=0.5;entryY=0;entryDx=0;entryDy=0;fontFamily=Times New Roman;" parent="WIyWlLk6GJQsqaUBKTNV-1" source="madsNF5-9-t_qONxIqkp-10" target="5NZmGxR7Z9d4b-Xke_Fb-58" edge="1">
          <mxGeometry relative="1" as="geometry">
            <mxPoint x="28" y="340" as="targetPoint" />
          </mxGeometry>
        </mxCell>
        <mxCell id="madsNF5-9-t_qONxIqkp-10" value="&lt;div&gt;&lt;span&gt;&lt;br&gt;&lt;/span&gt;&lt;/div&gt;&lt;div&gt;&lt;span&gt;Is the image scanned&lt;/span&gt;&lt;span&gt; with 300dpi? &lt;/span&gt;&lt;/div&gt;" style="rhombus;whiteSpace=wrap;shadow=0;fontFamily=Times New Roman;fontSize=12;align=center;strokeWidth=1;spacing=6;spacingTop=-1;verticalAlign=middle;textDirection=ltr;html=1;horizontal=1;fillColor=#dae8fc;strokeColor=#6c8ebf;labelPosition=center;verticalLabelPosition=middle;" parent="WIyWlLk6GJQsqaUBKTNV-1" vertex="1">
          <mxGeometry x="127.5" y="249.38" width="142.5" height="142.5" as="geometry" />
        </mxCell>
        <mxCell id="madsNF5-9-t_qONxIqkp-14" value="Photographed Image" style="text;html=1;strokeColor=none;fillColor=none;align=center;verticalAlign=middle;whiteSpace=wrap;rounded=0;rotation=0;fontFamily=Times New Roman;" parent="WIyWlLk6GJQsqaUBKTNV-1" vertex="1">
          <mxGeometry x="586" y="154" width="40" height="20" as="geometry" />
        </mxCell>
        <mxCell id="madsNF5-9-t_qONxIqkp-16" value="No" style="text;html=1;strokeColor=none;fillColor=none;align=center;verticalAlign=middle;whiteSpace=wrap;rounded=0;fontFamily=Times New Roman;" parent="WIyWlLk6GJQsqaUBKTNV-1" vertex="1">
          <mxGeometry x="500" y="145" width="40" height="20" as="geometry" />
        </mxCell>
        <mxCell id="madsNF5-9-t_qONxIqkp-19" value="Yes" style="text;html=1;strokeColor=none;fillColor=none;align=center;verticalAlign=middle;whiteSpace=wrap;rounded=0;fontFamily=Times New Roman;" parent="WIyWlLk6GJQsqaUBKTNV-1" vertex="1">
          <mxGeometry x="242" y="145" width="40" height="20" as="geometry" />
        </mxCell>
        <mxCell id="madsNF5-9-t_qONxIqkp-21" value="&lt;div&gt;Image preprocessing&lt;/div&gt;" style="rounded=1;whiteSpace=wrap;html=1;align=center;fillColor=#dae8fc;strokeColor=#6c8ebf;fontFamily=Times New Roman;" parent="WIyWlLk6GJQsqaUBKTNV-1" vertex="1">
          <mxGeometry x="312.25" y="361.25" width="156" height="80" as="geometry" />
        </mxCell>
        <mxCell id="madsNF5-9-t_qONxIqkp-22" value="&lt;div&gt;Text Extraction &lt;br&gt;&lt;/div&gt;&lt;div&gt;using OCR&lt;/div&gt;" style="rounded=1;whiteSpace=wrap;html=1;align=center;fillColor=#dae8fc;strokeColor=#6c8ebf;spacing=0;fontFamily=Times New Roman;" parent="WIyWlLk6GJQsqaUBKTNV-1" vertex="1">
          <mxGeometry x="312.25" y="540" width="156" height="80" as="geometry" />
        </mxCell>
        <mxCell id="madsNF5-9-t_qONxIqkp-23" value="Text Processing" style="rounded=1;whiteSpace=wrap;html=1;align=center;fillColor=#dae8fc;strokeColor=#6c8ebf;fontFamily=Times New Roman;" parent="WIyWlLk6GJQsqaUBKTNV-1" vertex="1">
          <mxGeometry x="312" y="683.75" width="156" height="80" as="geometry" />
        </mxCell>
        <mxCell id="madsNF5-9-t_qONxIqkp-32" style="edgeStyle=orthogonalEdgeStyle;rounded=0;orthogonalLoop=1;jettySize=auto;html=1;fontFamily=Times New Roman;" parent="WIyWlLk6GJQsqaUBKTNV-1" source="madsNF5-9-t_qONxIqkp-31" target="madsNF5-9-t_qONxIqkp-9" edge="1">
          <mxGeometry relative="1" as="geometry" />
        </mxCell>
        <mxCell id="madsNF5-9-t_qONxIqkp-31" value="&#xa;Input Image&#xa;&#xa;" style="shape=parallelogram;perimeter=parallelogramPerimeter;whiteSpace=wrap;html=1;fixedSize=1;rounded=1;strokeColor=#6c8ebf;fillColor=#dae8fc;labelPosition=center;verticalLabelPosition=middle;align=center;verticalAlign=middle;strokeWidth=1;spacingLeft=2;spacingTop=13;fontFamily=Times New Roman;" parent="WIyWlLk6GJQsqaUBKTNV-1" vertex="1">
          <mxGeometry x="325.26" width="129.75" height="60" as="geometry" />
        </mxCell>
        <mxCell id="madsNF5-9-t_qONxIqkp-33" value="Yes" style="text;html=1;strokeColor=none;fillColor=none;align=center;verticalAlign=middle;whiteSpace=wrap;rounded=0;fontFamily=Times New Roman;" parent="WIyWlLk6GJQsqaUBKTNV-1" vertex="1">
          <mxGeometry x="291" y="301" width="40" height="20" as="geometry" />
        </mxCell>
        <mxCell id="madsNF5-9-t_qONxIqkp-34" value="Yes" style="text;html=1;strokeColor=none;fillColor=none;align=center;verticalAlign=middle;whiteSpace=wrap;rounded=0;fontFamily=Times New Roman;" parent="WIyWlLk6GJQsqaUBKTNV-1" vertex="1">
          <mxGeometry x="450" y="301" width="40" height="20" as="geometry" />
        </mxCell>
        <mxCell id="madsNF5-9-t_qONxIqkp-38" value="No" style="text;html=1;strokeColor=none;fillColor=none;align=center;verticalAlign=middle;whiteSpace=wrap;rounded=0;fontFamily=Times New Roman;" parent="WIyWlLk6GJQsqaUBKTNV-1" vertex="1">
          <mxGeometry x="670" y="301" width="40" height="20" as="geometry" />
        </mxCell>
        <mxCell id="madsNF5-9-t_qONxIqkp-40" value="No" style="text;html=1;strokeColor=none;fillColor=none;align=center;verticalAlign=middle;whiteSpace=wrap;rounded=0;fontFamily=Times New Roman;" parent="WIyWlLk6GJQsqaUBKTNV-1" vertex="1">
          <mxGeometry x="70" y="301" width="40" height="20" as="geometry" />
        </mxCell>
        <mxCell id="5NZmGxR7Z9d4b-Xke_Fb-26" value="" style="endArrow=classic;html=1;exitX=0.5;exitY=1;exitDx=0;exitDy=0;entryX=0.5;entryY=0;entryDx=0;entryDy=0;fontFamily=Times New Roman;" parent="WIyWlLk6GJQsqaUBKTNV-1" source="madsNF5-9-t_qONxIqkp-21" target="madsNF5-9-t_qONxIqkp-22" edge="1">
          <mxGeometry relative="1" as="geometry">
            <mxPoint x="368.25" y="490" as="sourcePoint" />
            <mxPoint x="468.25" y="490" as="targetPoint" />
            <Array as="points" />
          </mxGeometry>
        </mxCell>
        <mxCell id="5NZmGxR7Z9d4b-Xke_Fb-27" value="&lt;div style=&quot;font-size: 12px&quot;&gt;Image is enhanced and &lt;br&gt;&lt;/div&gt;&lt;div style=&quot;font-size: 12px&quot;&gt;fed to OCR such that its &lt;br&gt;&lt;/div&gt;&lt;div style=&quot;font-size: 12px&quot;&gt;easier to recognize text.&lt;br style=&quot;font-size: 12px&quot;&gt;&lt;/div&gt;" style="edgeLabel;resizable=0;html=1;align=left;verticalAlign=middle;fontSize=12;fontFamily=Times New Roman;" parent="5NZmGxR7Z9d4b-Xke_Fb-26" connectable="0" vertex="1">
          <mxGeometry relative="1" as="geometry">
            <mxPoint x="-64.99" y="-0.25" as="offset" />
          </mxGeometry>
        </mxCell>
        <mxCell id="5NZmGxR7Z9d4b-Xke_Fb-29" value="" style="endArrow=classic;html=1;exitX=0.5;exitY=1;exitDx=0;exitDy=0;entryX=0.5;entryY=0;entryDx=0;entryDy=0;fontFamily=Times New Roman;" parent="WIyWlLk6GJQsqaUBKTNV-1" source="madsNF5-9-t_qONxIqkp-22" target="madsNF5-9-t_qONxIqkp-23" edge="1">
          <mxGeometry relative="1" as="geometry">
            <mxPoint x="530" y="670" as="sourcePoint" />
            <mxPoint x="530" y="787.5" as="targetPoint" />
            <Array as="points" />
          </mxGeometry>
        </mxCell>
        <mxCell id="5NZmGxR7Z9d4b-Xke_Fb-30" value="&lt;div&gt;Extracted text is &lt;br&gt;&lt;/div&gt;&lt;div&gt;stored in a file.&lt;/div&gt;" style="edgeLabel;resizable=0;html=1;align=left;verticalAlign=middle;fontSize=12;fontFamily=Times New Roman;" parent="5NZmGxR7Z9d4b-Xke_Fb-29" connectable="0" vertex="1">
          <mxGeometry relative="1" as="geometry">
            <mxPoint x="-90.12" y="-2" as="offset" />
          </mxGeometry>
        </mxCell>
        <mxCell id="5NZmGxR7Z9d4b-Xke_Fb-31" value="Data Storage" style="shape=parallelogram;perimeter=parallelogramPerimeter;whiteSpace=wrap;html=1;fixedSize=1;rounded=1;strokeColor=#6c8ebf;fillColor=#dae8fc;spacingTop=-1;spacingLeft=1;fontFamily=Times New Roman;" parent="WIyWlLk6GJQsqaUBKTNV-1" vertex="1">
          <mxGeometry x="313.83000000000004" y="859" width="152.33" height="80" as="geometry" />
        </mxCell>
        <mxCell id="5NZmGxR7Z9d4b-Xke_Fb-32" value="" style="endArrow=classic;html=1;exitX=0.5;exitY=1;exitDx=0;exitDy=0;entryX=0.5;entryY=0;entryDx=0;entryDy=0;fontFamily=Times New Roman;" parent="WIyWlLk6GJQsqaUBKTNV-1" source="madsNF5-9-t_qONxIqkp-23" target="5NZmGxR7Z9d4b-Xke_Fb-31" edge="1">
          <mxGeometry relative="1" as="geometry">
            <mxPoint x="400.25" y="840" as="sourcePoint" />
            <mxPoint x="400.1399999999999" y="961.25" as="targetPoint" />
            <Array as="points" />
          </mxGeometry>
        </mxCell>
        <mxCell id="5NZmGxR7Z9d4b-Xke_Fb-33" value="&lt;div&gt;Extracting fields &lt;br&gt;&lt;/div&gt;&lt;div&gt;using fuzzy logic and &lt;br&gt;&lt;/div&gt;advanced algorithms" style="edgeLabel;resizable=0;html=1;align=left;verticalAlign=middle;fontSize=12;fontFamily=Times New Roman;" parent="5NZmGxR7Z9d4b-Xke_Fb-32" connectable="0" vertex="1">
          <mxGeometry relative="1" as="geometry">
            <mxPoint x="-49.99999999999999" y="-6.25" as="offset" />
          </mxGeometry>
        </mxCell>
        <mxCell id="5NZmGxR7Z9d4b-Xke_Fb-34" value="End" style="ellipse;whiteSpace=wrap;html=1;rounded=1;strokeColor=#6c8ebf;fillColor=#dae8fc;spacingTop=-1;spacingLeft=1;fontFamily=Times New Roman;" parent="WIyWlLk6GJQsqaUBKTNV-1" vertex="1">
          <mxGeometry x="331" y="1089" width="120" height="80" as="geometry" />
        </mxCell>
        <mxCell id="5NZmGxR7Z9d4b-Xke_Fb-38" value="&lt;div&gt;Image preprocessing&lt;/div&gt;" style="rounded=1;whiteSpace=wrap;html=1;align=center;fillColor=#dae8fc;strokeColor=#6c8ebf;fontFamily=Times New Roman;" parent="WIyWlLk6GJQsqaUBKTNV-1" vertex="1">
          <mxGeometry x="660.25" y="361.25" width="156" height="80" as="geometry" />
        </mxCell>
        <mxCell id="Gegq5p_VePBEVRsmqxeE-21" value="" style="edgeStyle=orthogonalEdgeStyle;rounded=0;orthogonalLoop=1;jettySize=auto;html=1;" parent="WIyWlLk6GJQsqaUBKTNV-1" source="5NZmGxR7Z9d4b-Xke_Fb-39" target="5NZmGxR7Z9d4b-Xke_Fb-40" edge="1">
          <mxGeometry relative="1" as="geometry" />
        </mxCell>
        <mxCell id="5NZmGxR7Z9d4b-Xke_Fb-39" value="&lt;div&gt;Text Extraction &lt;br&gt;&lt;/div&gt;&lt;div&gt;using OCR&lt;/div&gt;" style="rounded=1;whiteSpace=wrap;html=1;align=center;fillColor=#dae8fc;strokeColor=#6c8ebf;spacing=0;fontFamily=Times New Roman;" parent="WIyWlLk6GJQsqaUBKTNV-1" vertex="1">
          <mxGeometry x="660.25" y="540" width="156" height="80" as="geometry" />
        </mxCell>
        <mxCell id="5NZmGxR7Z9d4b-Xke_Fb-40" value="Text Processing" style="rounded=1;whiteSpace=wrap;html=1;align=center;fillColor=#dae8fc;strokeColor=#6c8ebf;fontFamily=Times New Roman;" parent="WIyWlLk6GJQsqaUBKTNV-1" vertex="1">
          <mxGeometry x="660" y="683.75" width="156" height="80" as="geometry" />
        </mxCell>
        <mxCell id="5NZmGxR7Z9d4b-Xke_Fb-41" value="" style="endArrow=classic;html=1;exitX=0.5;exitY=1;exitDx=0;exitDy=0;entryX=0.5;entryY=0;entryDx=0;entryDy=0;fontFamily=Times New Roman;" parent="WIyWlLk6GJQsqaUBKTNV-1" source="5NZmGxR7Z9d4b-Xke_Fb-38" target="5NZmGxR7Z9d4b-Xke_Fb-39" edge="1">
          <mxGeometry relative="1" as="geometry">
            <mxPoint x="716.25" y="490" as="sourcePoint" />
            <mxPoint x="816.25" y="490" as="targetPoint" />
            <Array as="points" />
          </mxGeometry>
        </mxCell>
        <mxCell id="Gegq5p_VePBEVRsmqxeE-15" value="" style="edgeStyle=orthogonalEdgeStyle;rounded=0;orthogonalLoop=1;jettySize=auto;html=1;" parent="WIyWlLk6GJQsqaUBKTNV-1" source="5NZmGxR7Z9d4b-Xke_Fb-45" target="Gegq5p_VePBEVRsmqxeE-13" edge="1">
          <mxGeometry relative="1" as="geometry" />
        </mxCell>
        <mxCell id="5NZmGxR7Z9d4b-Xke_Fb-45" value="Data Storage" style="shape=parallelogram;perimeter=parallelogramPerimeter;whiteSpace=wrap;html=1;fixedSize=1;rounded=1;strokeColor=#6c8ebf;fillColor=#dae8fc;spacingTop=-1;spacingLeft=1;fontFamily=Times New Roman;" parent="WIyWlLk6GJQsqaUBKTNV-1" vertex="1">
          <mxGeometry x="663.3299999999999" y="859" width="149.61" height="80" as="geometry" />
        </mxCell>
        <mxCell id="5NZmGxR7Z9d4b-Xke_Fb-46" value="" style="endArrow=classic;html=1;exitX=0.5;exitY=1;exitDx=0;exitDy=0;entryX=0.5;entryY=0;entryDx=0;entryDy=0;fontFamily=Times New Roman;" parent="WIyWlLk6GJQsqaUBKTNV-1" source="5NZmGxR7Z9d4b-Xke_Fb-40" target="5NZmGxR7Z9d4b-Xke_Fb-45" edge="1">
          <mxGeometry relative="1" as="geometry">
            <mxPoint x="748.25" y="840" as="sourcePoint" />
            <mxPoint x="748.1399999999999" y="961.25" as="targetPoint" />
            <Array as="points" />
          </mxGeometry>
        </mxCell>
        <mxCell id="5NZmGxR7Z9d4b-Xke_Fb-51" value="&lt;div&gt;Unclear, darker or warped&lt;/div&gt;&lt;div&gt; image may make it harder&lt;/div&gt;&lt;div&gt; for OCR to function properly.&lt;/div&gt;" style="text;html=1;strokeColor=none;align=center;verticalAlign=middle;whiteSpace=wrap;rounded=0;fontSize=12;fontFamily=Times New Roman;fillColor=#ffffff;" parent="WIyWlLk6GJQsqaUBKTNV-1" vertex="1">
          <mxGeometry x="660.25" y="460" width="151" height="60" as="geometry" />
        </mxCell>
        <mxCell id="5NZmGxR7Z9d4b-Xke_Fb-53" value="&lt;div&gt;Data extracted may not &lt;br&gt;&lt;/div&gt;&lt;div&gt;make sense as OCR has&lt;/div&gt;&lt;div&gt; high variance in prediction.&lt;br&gt;&lt;/div&gt;" style="text;html=1;strokeColor=none;align=center;verticalAlign=middle;whiteSpace=wrap;rounded=0;fontSize=12;fontFamily=Times New Roman;fillColor=#ffffff;" parent="WIyWlLk6GJQsqaUBKTNV-1" vertex="1">
          <mxGeometry x="661" y="789" width="150" height="50" as="geometry" />
        </mxCell>
        <mxCell id="5NZmGxR7Z9d4b-Xke_Fb-55" value="Text extracted has very minimal mistakes." style="text;html=1;strokeColor=none;fillColor=none;align=left;verticalAlign=middle;whiteSpace=wrap;rounded=0;fontSize=12;fontFamily=Times New Roman;" parent="WIyWlLk6GJQsqaUBKTNV-1" vertex="1">
          <mxGeometry x="400" y="630" width="150" height="40" as="geometry" />
        </mxCell>
        <mxCell id="5NZmGxR7Z9d4b-Xke_Fb-90" style="edgeStyle=orthogonalEdgeStyle;rounded=0;orthogonalLoop=1;jettySize=auto;html=1;fontSize=12;fontFamily=Times New Roman;" parent="WIyWlLk6GJQsqaUBKTNV-1" source="5NZmGxR7Z9d4b-Xke_Fb-58" target="5NZmGxR7Z9d4b-Xke_Fb-74" edge="1">
          <mxGeometry relative="1" as="geometry" />
        </mxCell>
        <mxCell id="5NZmGxR7Z9d4b-Xke_Fb-58" value="&lt;div&gt;Image preprocessing&lt;/div&gt;" style="rounded=1;whiteSpace=wrap;html=1;align=center;fillColor=#dae8fc;strokeColor=#6c8ebf;fontFamily=Times New Roman;" parent="WIyWlLk6GJQsqaUBKTNV-1" vertex="1">
          <mxGeometry x="-46" y="361.25" width="156" height="80" as="geometry" />
        </mxCell>
        <mxCell id="5NZmGxR7Z9d4b-Xke_Fb-74" value="&lt;div&gt;Text Extraction &lt;br&gt;&lt;/div&gt;&lt;div&gt;using OCR&lt;/div&gt;" style="rounded=1;whiteSpace=wrap;html=1;align=center;fillColor=#dae8fc;strokeColor=#6c8ebf;spacing=0;fontFamily=Times New Roman;" parent="WIyWlLk6GJQsqaUBKTNV-1" vertex="1">
          <mxGeometry x="-46.06" y="540" width="156" height="80" as="geometry" />
        </mxCell>
        <mxCell id="5NZmGxR7Z9d4b-Xke_Fb-75" value="Text Processing" style="rounded=1;whiteSpace=wrap;html=1;align=center;fillColor=#dae8fc;strokeColor=#6c8ebf;fontFamily=Times New Roman;" parent="WIyWlLk6GJQsqaUBKTNV-1" vertex="1">
          <mxGeometry x="-46" y="683.75" width="156" height="80" as="geometry" />
        </mxCell>
        <mxCell id="5NZmGxR7Z9d4b-Xke_Fb-76" value="" style="endArrow=classic;html=1;exitX=0.5;exitY=1;exitDx=0;exitDy=0;entryX=0.5;entryY=0;entryDx=0;entryDy=0;fontFamily=Times New Roman;" parent="WIyWlLk6GJQsqaUBKTNV-1" source="5NZmGxR7Z9d4b-Xke_Fb-74" target="5NZmGxR7Z9d4b-Xke_Fb-75" edge="1">
          <mxGeometry relative="1" as="geometry">
            <mxPoint x="175" y="670" as="sourcePoint" />
            <mxPoint x="175" y="787.5" as="targetPoint" />
            <Array as="points" />
          </mxGeometry>
        </mxCell>
        <mxCell id="Gegq5p_VePBEVRsmqxeE-14" value="" style="edgeStyle=orthogonalEdgeStyle;rounded=0;orthogonalLoop=1;jettySize=auto;html=1;" parent="WIyWlLk6GJQsqaUBKTNV-1" source="5NZmGxR7Z9d4b-Xke_Fb-78" target="Gegq5p_VePBEVRsmqxeE-12" edge="1">
          <mxGeometry relative="1" as="geometry" />
        </mxCell>
        <mxCell id="5NZmGxR7Z9d4b-Xke_Fb-78" value="Data Storage" style="shape=parallelogram;perimeter=parallelogramPerimeter;whiteSpace=wrap;html=1;fixedSize=1;rounded=1;strokeColor=#6c8ebf;fillColor=#dae8fc;spacingTop=-1;spacingLeft=1;fontFamily=Times New Roman;" parent="WIyWlLk6GJQsqaUBKTNV-1" vertex="1">
          <mxGeometry x="-42.800000000000075" y="859" width="149.61" height="80" as="geometry" />
        </mxCell>
        <mxCell id="5NZmGxR7Z9d4b-Xke_Fb-79" value="" style="endArrow=classic;html=1;exitX=0.5;exitY=1;exitDx=0;exitDy=0;entryX=0.5;entryY=0;entryDx=0;entryDy=0;fontFamily=Times New Roman;" parent="WIyWlLk6GJQsqaUBKTNV-1" source="5NZmGxR7Z9d4b-Xke_Fb-75" target="5NZmGxR7Z9d4b-Xke_Fb-78" edge="1">
          <mxGeometry relative="1" as="geometry">
            <mxPoint x="45.25" y="840" as="sourcePoint" />
            <mxPoint x="45.13999999999987" y="961.25" as="targetPoint" />
            <Array as="points" />
          </mxGeometry>
        </mxCell>
        <mxCell id="5NZmGxR7Z9d4b-Xke_Fb-85" value="&lt;div&gt;Text may contain more mistakes, spelling errors and unrecognized words.&lt;br&gt;&lt;/div&gt;" style="text;html=1;align=center;verticalAlign=middle;whiteSpace=wrap;rounded=0;fontSize=12;fontFamily=Times New Roman;fillColor=#ffffff;" parent="WIyWlLk6GJQsqaUBKTNV-1" vertex="1">
          <mxGeometry x="-36" y="630" width="150" height="40" as="geometry" />
        </mxCell>
        <mxCell id="5NZmGxR7Z9d4b-Xke_Fb-86" value="&lt;div&gt;Data extracted may not make sense as OCR prediction is not consistent.&lt;br&gt;&lt;/div&gt;" style="text;html=1;strokeColor=none;align=center;verticalAlign=middle;whiteSpace=wrap;rounded=0;fontSize=12;fontFamily=Times New Roman;fillColor=#ffffff;" parent="WIyWlLk6GJQsqaUBKTNV-1" vertex="1">
          <mxGeometry x="-28.989999999999995" y="780" width="136" height="51" as="geometry" />
        </mxCell>
        <mxCell id="5NZmGxR7Z9d4b-Xke_Fb-89" value="&lt;div&gt;Images scanned with dpi&lt;/div&gt;&lt;div&gt; settings other than 300 &lt;br&gt;&lt;/div&gt;&lt;div&gt;may makeit harder for &lt;br&gt;&lt;/div&gt;&lt;div&gt;OCR to function properly. &lt;br&gt;&lt;/div&gt;" style="text;strokeColor=none;align=center;verticalAlign=middle;rounded=0;fontSize=12;textDirection=ltr;html=1;whiteSpace=wrap;labelBorderColor=none;labelBackgroundColor=none;fontStyle=0;fontFamily=Times New Roman;fillColor=#ffffff;" parent="WIyWlLk6GJQsqaUBKTNV-1" vertex="1">
          <mxGeometry x="-32.06" y="460" width="138.06" height="52.5" as="geometry" />
        </mxCell>
        <mxCell id="Gegq5p_VePBEVRsmqxeE-11" value="" style="edgeStyle=orthogonalEdgeStyle;rounded=0;orthogonalLoop=1;jettySize=auto;html=1;" parent="WIyWlLk6GJQsqaUBKTNV-1" source="Gegq5p_VePBEVRsmqxeE-8" target="5NZmGxR7Z9d4b-Xke_Fb-34" edge="1">
          <mxGeometry relative="1" as="geometry" />
        </mxCell>
        <mxCell id="Gegq5p_VePBEVRsmqxeE-8" value="Accuracy of prediction is on average greater than 85%" style="whiteSpace=wrap;html=1;rounded=1;fontFamily=Times New Roman;strokeColor=#6c8ebf;fillColor=#dae8fc;spacingTop=-1;spacingLeft=1;" parent="WIyWlLk6GJQsqaUBKTNV-1" vertex="1">
          <mxGeometry x="330.135" y="1000" width="120" height="60" as="geometry" />
        </mxCell>
        <mxCell id="Gegq5p_VePBEVRsmqxeE-17" style="edgeStyle=orthogonalEdgeStyle;rounded=0;orthogonalLoop=1;jettySize=auto;html=1;entryX=0;entryY=0.5;entryDx=0;entryDy=0;" parent="WIyWlLk6GJQsqaUBKTNV-1" source="Gegq5p_VePBEVRsmqxeE-12" target="5NZmGxR7Z9d4b-Xke_Fb-34" edge="1">
          <mxGeometry relative="1" as="geometry">
            <Array as="points">
              <mxPoint x="32" y="1129" />
            </Array>
          </mxGeometry>
        </mxCell>
        <mxCell id="Gegq5p_VePBEVRsmqxeE-12" value="&lt;div&gt;Accuracy of prediction &lt;br&gt;&lt;/div&gt;&lt;div&gt;varies from 30% to 80%.&lt;/div&gt;" style="whiteSpace=wrap;html=1;rounded=1;fontFamily=Times New Roman;strokeColor=#6c8ebf;fillColor=#dae8fc;spacingTop=-1;spacingLeft=1;" parent="WIyWlLk6GJQsqaUBKTNV-1" vertex="1">
          <mxGeometry x="-27.995000000000005" y="1000" width="120" height="60" as="geometry" />
        </mxCell>
        <mxCell id="Gegq5p_VePBEVRsmqxeE-16" style="edgeStyle=orthogonalEdgeStyle;rounded=0;orthogonalLoop=1;jettySize=auto;html=1;entryX=1;entryY=0.5;entryDx=0;entryDy=0;" parent="WIyWlLk6GJQsqaUBKTNV-1" source="Gegq5p_VePBEVRsmqxeE-13" target="5NZmGxR7Z9d4b-Xke_Fb-34" edge="1">
          <mxGeometry relative="1" as="geometry">
            <Array as="points">
              <mxPoint x="738" y="1129" />
            </Array>
          </mxGeometry>
        </mxCell>
        <mxCell id="Gegq5p_VePBEVRsmqxeE-13" value="Accuracy of prediction varies widely ranging from 10% to 70%." style="whiteSpace=wrap;html=1;rounded=1;fontFamily=Times New Roman;strokeColor=#6c8ebf;fillColor=#dae8fc;spacingTop=-1;spacingLeft=1;" parent="WIyWlLk6GJQsqaUBKTNV-1" vertex="1">
          <mxGeometry x="678.245" y="1000" width="120" height="60" as="geometry" />
        </mxCell>
        <mxCell id="Gegq5p_VePBEVRsmqxeE-18" value="" style="endArrow=classic;html=1;exitX=0.5;exitY=1;exitDx=0;exitDy=0;entryX=0.5;entryY=0;entryDx=0;entryDy=0;fontFamily=Times New Roman;" parent="WIyWlLk6GJQsqaUBKTNV-1" source="5NZmGxR7Z9d4b-Xke_Fb-31" target="Gegq5p_VePBEVRsmqxeE-8" edge="1">
          <mxGeometry relative="1" as="geometry">
            <mxPoint x="570" y="903.75" as="sourcePoint" />
            <mxPoint x="570.0050000000001" y="1000" as="targetPoint" />
            <Array as="points" />
          </mxGeometry>
        </mxCell>
        <mxCell id="Gegq5p_VePBEVRsmqxeE-19" value="&lt;div&gt;Stored in database or&lt;/div&gt;&lt;div&gt; exported as csv or excel file.&lt;/div&gt;" style="edgeLabel;resizable=0;html=1;align=left;verticalAlign=middle;fontSize=12;fontFamily=Times New Roman;" parent="Gegq5p_VePBEVRsmqxeE-18" connectable="0" vertex="1">
          <mxGeometry relative="1" as="geometry">
            <mxPoint x="-58.06999999999999" y="-2.75" as="offset" />
          </mxGeometry>
        </mxCell>
        <mxCell id="5NZmGxR7Z9d4b-Xke_Fb-52" value="&lt;div&gt;Text may contain more &lt;br&gt;&lt;/div&gt;&lt;div&gt;errors, spelling mistake &lt;br&gt;&lt;/div&gt;&lt;div&gt;and unrecognized words.&lt;br&gt;&lt;/div&gt;" style="text;html=1;strokeColor=none;align=center;verticalAlign=middle;whiteSpace=wrap;rounded=0;fontSize=12;fontFamily=Times New Roman;fillColor=#ffffff;" parent="WIyWlLk6GJQsqaUBKTNV-1" vertex="1">
          <mxGeometry x="672.24" y="630" width="130" height="40" as="geometry" />
        </mxCell>
      </root>
    </mxGraphModel>
  </diagram>
  <diagram id="O1p_N1u7pAPEMAb1gq1V" name="Page-2">
    <mxGraphModel dx="868" dy="1316" grid="1" gridSize="10" guides="1" tooltips="1" connect="1" arrows="1" fold="1" page="1" pageScale="1" pageWidth="1169" pageHeight="827" math="0" shadow="0">
      <root>
        <mxCell id="XD3poA37Fs1E2vji1I_c-0" />
        <mxCell id="XD3poA37Fs1E2vji1I_c-1" parent="XD3poA37Fs1E2vji1I_c-0" />
        <mxCell id="VaIvNmGocO2AobiQEw6w-17" style="edgeStyle=orthogonalEdgeStyle;rounded=0;orthogonalLoop=1;jettySize=auto;html=1;exitX=0.5;exitY=1;exitDx=0;exitDy=0;" parent="XD3poA37Fs1E2vji1I_c-1" source="T9hwldAeEJelkzL2UWQI-5" target="VaIvNmGocO2AobiQEw6w-9" edge="1">
          <mxGeometry relative="1" as="geometry">
            <mxPoint x="400.29999999999995" y="-279.54999999999995" as="sourcePoint" />
          </mxGeometry>
        </mxCell>
        <mxCell id="VaIvNmGocO2AobiQEw6w-18" style="edgeStyle=orthogonalEdgeStyle;rounded=0;orthogonalLoop=1;jettySize=auto;html=1;entryX=0.5;entryY=0;entryDx=0;entryDy=0;" parent="XD3poA37Fs1E2vji1I_c-1" target="VaIvNmGocO2AobiQEw6w-13" edge="1">
          <mxGeometry relative="1" as="geometry">
            <mxPoint x="400" y="-200" as="sourcePoint" />
            <Array as="points">
              <mxPoint x="400" y="-200" />
              <mxPoint x="240" y="-200" />
            </Array>
          </mxGeometry>
        </mxCell>
        <mxCell id="VaIvNmGocO2AobiQEw6w-19" style="edgeStyle=orthogonalEdgeStyle;rounded=0;orthogonalLoop=1;jettySize=auto;html=1;entryX=0.5;entryY=0;entryDx=0;entryDy=0;" parent="XD3poA37Fs1E2vji1I_c-1" target="VaIvNmGocO2AobiQEw6w-11" edge="1">
          <mxGeometry relative="1" as="geometry">
            <mxPoint x="400" y="-200" as="sourcePoint" />
            <Array as="points">
              <mxPoint x="400" y="-200" />
              <mxPoint x="560" y="-200" />
            </Array>
          </mxGeometry>
        </mxCell>
        <mxCell id="T9hwldAeEJelkzL2UWQI-0" style="edgeStyle=orthogonalEdgeStyle;rounded=0;orthogonalLoop=1;jettySize=auto;html=1;exitX=0.5;exitY=1;exitDx=0;exitDy=0;" parent="XD3poA37Fs1E2vji1I_c-1" source="VaIvNmGocO2AobiQEw6w-9" edge="1">
          <mxGeometry relative="1" as="geometry">
            <mxPoint x="401" y="40" as="targetPoint" />
          </mxGeometry>
        </mxCell>
        <mxCell id="VaIvNmGocO2AobiQEw6w-9" value="&lt;div style=&quot;font-size: 12px&quot;&gt;Image is enhanced and &lt;br&gt;&lt;/div&gt;&lt;div style=&quot;font-size: 12px&quot;&gt;fed to OCR such that its &lt;br&gt;&lt;/div&gt;&lt;div style=&quot;font-size: 12px&quot;&gt;easier to recognize text.&lt;br style=&quot;font-size: 12px&quot;&gt;&lt;/div&gt;" style="whiteSpace=wrap;html=1;shadow=0;fontFamily=Times New Roman;strokeColor=#6c8ebf;strokeWidth=1;fillColor=#dae8fc;spacing=6;spacingTop=-1;" parent="XD3poA37Fs1E2vji1I_c-1" vertex="1">
          <mxGeometry x="331" y="-137" width="140" height="60" as="geometry" />
        </mxCell>
        <mxCell id="T9hwldAeEJelkzL2UWQI-4" style="edgeStyle=elbowEdgeStyle;rounded=0;orthogonalLoop=1;jettySize=auto;elbow=vertical;html=1;startArrow=none;startFill=0;endArrow=none;endFill=0;" parent="XD3poA37Fs1E2vji1I_c-1" source="VaIvNmGocO2AobiQEw6w-11" edge="1">
          <mxGeometry relative="1" as="geometry">
            <mxPoint x="400" y="-20" as="targetPoint" />
            <Array as="points">
              <mxPoint x="480" y="-20" />
            </Array>
          </mxGeometry>
        </mxCell>
        <mxCell id="VaIvNmGocO2AobiQEw6w-11" value="&lt;div&gt;Unclear, darker or warped&lt;/div&gt;&lt;div&gt; image may make it harder&lt;/div&gt;&lt;div&gt; for OCR to function properly.&lt;/div&gt;" style="whiteSpace=wrap;html=1;shadow=0;fontFamily=Times New Roman;strokeColor=#6c8ebf;strokeWidth=1;fillColor=#dae8fc;spacing=6;spacingTop=-1;" parent="XD3poA37Fs1E2vji1I_c-1" vertex="1">
          <mxGeometry x="490" y="-137" width="140" height="60" as="geometry" />
        </mxCell>
        <mxCell id="T9hwldAeEJelkzL2UWQI-3" style="edgeStyle=elbowEdgeStyle;rounded=0;orthogonalLoop=1;jettySize=auto;elbow=vertical;html=1;endArrow=none;endFill=0;" parent="XD3poA37Fs1E2vji1I_c-1" source="VaIvNmGocO2AobiQEw6w-13" edge="1">
          <mxGeometry relative="1" as="geometry">
            <mxPoint x="400" y="-20" as="targetPoint" />
            <Array as="points">
              <mxPoint x="320" y="-20" />
            </Array>
          </mxGeometry>
        </mxCell>
        <mxCell id="VaIvNmGocO2AobiQEw6w-13" value="&lt;div&gt;Images scanned with dpi&lt;/div&gt;&lt;div&gt; settings other than 300 &lt;br&gt;&lt;/div&gt;&lt;div&gt;may makeit harder for &lt;br&gt;&lt;/div&gt;&lt;div&gt;OCR to function properly. &lt;br&gt;&lt;/div&gt;" style="whiteSpace=wrap;html=1;shadow=0;fontFamily=Times New Roman;strokeColor=#6c8ebf;strokeWidth=1;fillColor=#dae8fc;spacing=6;spacingTop=-1;" parent="XD3poA37Fs1E2vji1I_c-1" vertex="1">
          <mxGeometry x="170" y="-137" width="140" height="60" as="geometry" />
        </mxCell>
        <mxCell id="T9hwldAeEJelkzL2UWQI-5" value="&#xa;Image Processing&#xa;&#xa;" style="rounded=1;whiteSpace=wrap;html=1;fillColor=#dae8fc;strokeColor=#6c8ebf;spacingTop=12;" parent="XD3poA37Fs1E2vji1I_c-1" vertex="1">
          <mxGeometry x="341" y="-340" width="120" height="60" as="geometry" />
        </mxCell>
        <mxCell id="GYiLhKapwaXAjgaXwPH3-0" value="scanned image" style="text;html=1;strokeColor=none;fillColor=none;align=center;verticalAlign=middle;whiteSpace=wrap;rounded=0;" parent="XD3poA37Fs1E2vji1I_c-1" vertex="1">
          <mxGeometry x="271" y="-210" width="60" height="20" as="geometry" />
        </mxCell>
      </root>
    </mxGraphModel>
  </diagram>
  <diagram id="nAmaFIsnZIB7_6brdCt9" name="Page-3">
    <mxGraphModel dx="1892" dy="1235" grid="1" gridSize="10" guides="1" tooltips="1" connect="1" arrows="1" fold="1" page="1" pageScale="1" pageWidth="1169" pageHeight="827" math="0" shadow="0">
      <root>
        <mxCell id="NCIjhWGpIYJCHgi4TV7V-0" />
        <mxCell id="NCIjhWGpIYJCHgi4TV7V-1" parent="NCIjhWGpIYJCHgi4TV7V-0" />
        <mxCell id="NCIjhWGpIYJCHgi4TV7V-69" value="" style="rounded=1;whiteSpace=wrap;html=1;labelBackgroundColor=none;textOpacity=0;glass=0;sketch=0;shadow=0;fillColor=none;dashed=1;" parent="NCIjhWGpIYJCHgi4TV7V-1" vertex="1">
          <mxGeometry x="57" y="536" width="610" height="650" as="geometry" />
        </mxCell>
        <mxCell id="jZBGwwbRQlxu5n_X0xOK-2" style="edgeStyle=orthogonalEdgeStyle;rounded=0;orthogonalLoop=1;jettySize=auto;html=1;entryX=0.75;entryY=0;entryDx=0;entryDy=0;strokeColor=#000066;" edge="1" parent="NCIjhWGpIYJCHgi4TV7V-1" source="NCIjhWGpIYJCHgi4TV7V-4" target="NCIjhWGpIYJCHgi4TV7V-14">
          <mxGeometry relative="1" as="geometry" />
        </mxCell>
        <mxCell id="NCIjhWGpIYJCHgi4TV7V-4" value="Is the photo bright&lt;div&gt;&amp;amp; clear with no page folding/warping?&amp;nbsp; &lt;br&gt;&lt;/div&gt;" style="rhombus;whiteSpace=wrap;shadow=0;fontFamily=Times New Roman;fontSize=12;align=center;strokeWidth=1;spacing=6;spacingTop=4;verticalAlign=middle;textDirection=ltr;html=1;horizontal=1;fillColor=#dae8fc;strokeColor=#6c8ebf;labelPosition=center;verticalLabelPosition=middle;spacingLeft=1;" parent="NCIjhWGpIYJCHgi4TV7V-1" vertex="1">
          <mxGeometry x="410" y="247.75" width="142.5" height="142.5" as="geometry" />
        </mxCell>
        <mxCell id="NCIjhWGpIYJCHgi4TV7V-6" style="edgeStyle=orthogonalEdgeStyle;rounded=0;orthogonalLoop=1;jettySize=auto;html=1;exitX=1;exitY=0.5;exitDx=0;exitDy=0;entryX=0.5;entryY=0;entryDx=0;entryDy=0;fontFamily=Times New Roman;" parent="NCIjhWGpIYJCHgi4TV7V-1" source="NCIjhWGpIYJCHgi4TV7V-7" target="NCIjhWGpIYJCHgi4TV7V-4" edge="1">
          <mxGeometry relative="1" as="geometry" />
        </mxCell>
        <mxCell id="NCIjhWGpIYJCHgi4TV7V-7" value="&lt;br&gt;&lt;br&gt;&lt;p class=&quot;MsoNormal&quot; style=&quot;text-align: center&quot; align=&quot;center&quot;&gt;&lt;span lang=&quot;EN-IN&quot;&gt;Is it scanned?&lt;/span&gt;&lt;/p&gt;&lt;br&gt;&lt;br&gt;" style="rhombus;whiteSpace=wrap;html=1;shadow=0;fontFamily=Times New Roman;fontSize=12;align=center;strokeWidth=1;spacing=6;spacingTop=-4;fillColor=#dae8fc;strokeColor=#6c8ebf;" parent="NCIjhWGpIYJCHgi4TV7V-1" vertex="1">
          <mxGeometry x="294" y="95" width="132.5" height="130" as="geometry" />
        </mxCell>
        <mxCell id="NCIjhWGpIYJCHgi4TV7V-82" style="edgeStyle=orthogonalEdgeStyle;rounded=0;orthogonalLoop=1;jettySize=auto;html=1;entryX=0;entryY=0.5;entryDx=0;entryDy=0;startArrow=classic;startFill=1;endArrow=none;endFill=0;fontColor=#000000;" parent="NCIjhWGpIYJCHgi4TV7V-1" source="NCIjhWGpIYJCHgi4TV7V-10" target="NCIjhWGpIYJCHgi4TV7V-7" edge="1">
          <mxGeometry relative="1" as="geometry" />
        </mxCell>
        <mxCell id="NCIjhWGpIYJCHgi4TV7V-83" style="edgeStyle=orthogonalEdgeStyle;rounded=0;orthogonalLoop=1;jettySize=auto;html=1;entryX=0;entryY=0.5;entryDx=0;entryDy=0;startArrow=none;startFill=0;endArrow=none;endFill=0;fontColor=#000000;strokeColor=#006600;" parent="NCIjhWGpIYJCHgi4TV7V-1" source="NCIjhWGpIYJCHgi4TV7V-10" target="NCIjhWGpIYJCHgi4TV7V-4" edge="1">
          <mxGeometry relative="1" as="geometry" />
        </mxCell>
        <mxCell id="jZBGwwbRQlxu5n_X0xOK-3" style="edgeStyle=orthogonalEdgeStyle;rounded=0;orthogonalLoop=1;jettySize=auto;html=1;entryX=0.25;entryY=0;entryDx=0;entryDy=0;strokeColor=#990000;" edge="1" parent="NCIjhWGpIYJCHgi4TV7V-1" source="NCIjhWGpIYJCHgi4TV7V-10" target="NCIjhWGpIYJCHgi4TV7V-14">
          <mxGeometry relative="1" as="geometry" />
        </mxCell>
        <mxCell id="NCIjhWGpIYJCHgi4TV7V-10" value="&lt;div&gt;&lt;span&gt;&lt;br&gt;&lt;/span&gt;&lt;/div&gt;&lt;div&gt;&lt;span&gt;Is the image scanned&lt;/span&gt;&lt;span&gt; with 300dpi? &lt;/span&gt;&lt;/div&gt;" style="rhombus;whiteSpace=wrap;shadow=0;fontFamily=Times New Roman;fontSize=12;align=center;strokeWidth=1;spacing=6;spacingTop=-1;verticalAlign=middle;textDirection=ltr;html=1;horizontal=1;fillColor=#dae8fc;strokeColor=#6c8ebf;labelPosition=center;verticalLabelPosition=middle;" parent="NCIjhWGpIYJCHgi4TV7V-1" vertex="1">
          <mxGeometry x="169" y="248" width="142.5" height="142.5" as="geometry" />
        </mxCell>
        <mxCell id="NCIjhWGpIYJCHgi4TV7V-11" value="Photographed Image" style="text;html=1;strokeColor=none;fillColor=none;align=center;verticalAlign=middle;whiteSpace=wrap;rounded=0;rotation=0;fontFamily=Times New Roman;" parent="NCIjhWGpIYJCHgi4TV7V-1" vertex="1">
          <mxGeometry x="557" y="150" width="40" height="20" as="geometry" />
        </mxCell>
        <mxCell id="NCIjhWGpIYJCHgi4TV7V-12" value="No" style="text;html=1;strokeColor=none;fillColor=none;align=center;verticalAlign=middle;whiteSpace=wrap;rounded=0;fontFamily=Times New Roman;" parent="NCIjhWGpIYJCHgi4TV7V-1" vertex="1">
          <mxGeometry x="471" y="141" width="40" height="20" as="geometry" />
        </mxCell>
        <mxCell id="NCIjhWGpIYJCHgi4TV7V-13" value="Yes" style="text;html=1;strokeColor=none;fillColor=none;align=center;verticalAlign=middle;whiteSpace=wrap;rounded=0;fontFamily=Times New Roman;" parent="NCIjhWGpIYJCHgi4TV7V-1" vertex="1">
          <mxGeometry x="213" y="141" width="40" height="20" as="geometry" />
        </mxCell>
        <mxCell id="NCIjhWGpIYJCHgi4TV7V-78" style="edgeStyle=orthogonalEdgeStyle;rounded=0;orthogonalLoop=1;jettySize=auto;html=1;endArrow=none;endFill=0;fontColor=#000000;startArrow=classic;startFill=1;strokeColor=#006600;" parent="NCIjhWGpIYJCHgi4TV7V-1" source="NCIjhWGpIYJCHgi4TV7V-14" edge="1">
          <mxGeometry relative="1" as="geometry">
            <mxPoint x="360.80999999999995" y="320" as="targetPoint" />
          </mxGeometry>
        </mxCell>
        <mxCell id="jZBGwwbRQlxu5n_X0xOK-8" value="" style="edgeStyle=orthogonalEdgeStyle;rounded=0;orthogonalLoop=1;jettySize=auto;html=1;strokeColor=#006600;" edge="1" parent="NCIjhWGpIYJCHgi4TV7V-1" source="NCIjhWGpIYJCHgi4TV7V-14" target="jZBGwwbRQlxu5n_X0xOK-4">
          <mxGeometry relative="1" as="geometry" />
        </mxCell>
        <mxCell id="jZBGwwbRQlxu5n_X0xOK-10" style="edgeStyle=orthogonalEdgeStyle;rounded=0;orthogonalLoop=1;jettySize=auto;html=1;exitX=0.25;exitY=1;exitDx=0;exitDy=0;entryX=0.25;entryY=0;entryDx=0;entryDy=0;strokeColor=#990000;" edge="1" parent="NCIjhWGpIYJCHgi4TV7V-1" source="NCIjhWGpIYJCHgi4TV7V-14" target="jZBGwwbRQlxu5n_X0xOK-4">
          <mxGeometry relative="1" as="geometry" />
        </mxCell>
        <mxCell id="jZBGwwbRQlxu5n_X0xOK-11" style="edgeStyle=orthogonalEdgeStyle;rounded=0;orthogonalLoop=1;jettySize=auto;html=1;exitX=0.75;exitY=1;exitDx=0;exitDy=0;entryX=0.75;entryY=0;entryDx=0;entryDy=0;strokeColor=#000066;" edge="1" parent="NCIjhWGpIYJCHgi4TV7V-1" source="NCIjhWGpIYJCHgi4TV7V-14" target="jZBGwwbRQlxu5n_X0xOK-4">
          <mxGeometry relative="1" as="geometry" />
        </mxCell>
        <mxCell id="NCIjhWGpIYJCHgi4TV7V-14" value="&lt;div&gt;&lt;span&gt;Image Preprocessing&lt;/span&gt;&lt;/div&gt;" style="rounded=1;whiteSpace=wrap;html=1;align=center;fillColor=#dae8fc;strokeColor=#6c8ebf;fontFamily=Times New Roman;fontStyle=0;arcSize=20;" parent="NCIjhWGpIYJCHgi4TV7V-1" vertex="1">
          <mxGeometry x="118.69" y="575" width="483.31" height="80" as="geometry" />
        </mxCell>
        <mxCell id="NCIjhWGpIYJCHgi4TV7V-17" style="edgeStyle=orthogonalEdgeStyle;rounded=0;orthogonalLoop=1;jettySize=auto;html=1;fontFamily=Times New Roman;" parent="NCIjhWGpIYJCHgi4TV7V-1" source="NCIjhWGpIYJCHgi4TV7V-18" target="NCIjhWGpIYJCHgi4TV7V-7" edge="1">
          <mxGeometry relative="1" as="geometry" />
        </mxCell>
        <mxCell id="NCIjhWGpIYJCHgi4TV7V-18" value="&#xa;Input Image&#xa;&#xa;" style="shape=parallelogram;perimeter=parallelogramPerimeter;whiteSpace=wrap;html=1;fixedSize=1;rounded=1;strokeColor=#6c8ebf;fillColor=#dae8fc;labelPosition=center;verticalLabelPosition=middle;align=center;verticalAlign=middle;strokeWidth=1;spacingLeft=2;spacingTop=13;fontFamily=Times New Roman;" parent="NCIjhWGpIYJCHgi4TV7V-1" vertex="1">
          <mxGeometry x="296.26" y="-4" width="129.75" height="60" as="geometry" />
        </mxCell>
        <mxCell id="NCIjhWGpIYJCHgi4TV7V-19" value="Yes" style="text;html=1;strokeColor=none;fillColor=none;align=center;verticalAlign=middle;whiteSpace=wrap;rounded=0;fontFamily=Times New Roman;" parent="NCIjhWGpIYJCHgi4TV7V-1" vertex="1">
          <mxGeometry x="129" y="277" width="40" height="20" as="geometry" />
        </mxCell>
        <mxCell id="NCIjhWGpIYJCHgi4TV7V-20" value="Yes" style="text;html=1;strokeColor=none;fillColor=none;align=center;verticalAlign=middle;whiteSpace=wrap;rounded=0;fontFamily=Times New Roman;" parent="NCIjhWGpIYJCHgi4TV7V-1" vertex="1">
          <mxGeometry x="311.5" y="297" width="40" height="20" as="geometry" />
        </mxCell>
        <mxCell id="NCIjhWGpIYJCHgi4TV7V-21" value="No" style="text;html=1;strokeColor=none;fillColor=none;align=center;verticalAlign=middle;whiteSpace=wrap;rounded=0;fontFamily=Times New Roman;" parent="NCIjhWGpIYJCHgi4TV7V-1" vertex="1">
          <mxGeometry x="481" y="394" width="40" height="20" as="geometry" />
        </mxCell>
        <mxCell id="NCIjhWGpIYJCHgi4TV7V-22" value="No" style="text;html=1;strokeColor=none;fillColor=none;align=center;verticalAlign=middle;whiteSpace=wrap;rounded=0;fontFamily=Times New Roman;" parent="NCIjhWGpIYJCHgi4TV7V-1" vertex="1">
          <mxGeometry x="200" y="396" width="40" height="20" as="geometry" />
        </mxCell>
        <mxCell id="NCIjhWGpIYJCHgi4TV7V-30" value="End" style="ellipse;whiteSpace=wrap;html=1;rounded=1;strokeColor=#6c8ebf;fillColor=#dae8fc;spacingTop=-1;spacingLeft=1;fontFamily=Times New Roman;" parent="NCIjhWGpIYJCHgi4TV7V-1" vertex="1">
          <mxGeometry x="301.14" y="1370" width="120" height="80" as="geometry" />
        </mxCell>
        <mxCell id="NCIjhWGpIYJCHgi4TV7V-36" value="" style="edgeStyle=orthogonalEdgeStyle;rounded=0;orthogonalLoop=1;jettySize=auto;html=1;" parent="NCIjhWGpIYJCHgi4TV7V-1" target="NCIjhWGpIYJCHgi4TV7V-58" edge="1">
          <mxGeometry relative="1" as="geometry">
            <mxPoint x="709.0999999999999" y="935" as="sourcePoint" />
          </mxGeometry>
        </mxCell>
        <mxCell id="NCIjhWGpIYJCHgi4TV7V-39" value="&lt;div&gt;Unclear, darker or warped&lt;/div&gt;&lt;div&gt; image may make it harder&lt;/div&gt;&lt;div&gt; for OCR to function properly.&lt;/div&gt;" style="text;html=1;strokeColor=none;align=center;verticalAlign=middle;whiteSpace=wrap;rounded=0;fontSize=12;fontFamily=Times New Roman;fillColor=#ffffff;" parent="NCIjhWGpIYJCHgi4TV7V-1" vertex="1">
          <mxGeometry x="557" y="396" width="151" height="60" as="geometry" />
        </mxCell>
        <mxCell id="NCIjhWGpIYJCHgi4TV7V-40" value="&lt;div&gt;Data extracted may not &lt;br&gt;&lt;/div&gt;&lt;div&gt;make sense as OCR has&lt;/div&gt;&lt;div&gt; high variance in prediction.&lt;br&gt;&lt;/div&gt;" style="text;html=1;strokeColor=none;align=center;verticalAlign=middle;whiteSpace=wrap;rounded=0;fontSize=12;fontFamily=Times New Roman;fillColor=#ffffff;" parent="NCIjhWGpIYJCHgi4TV7V-1" vertex="1">
          <mxGeometry x="632" y="785" width="150" height="50" as="geometry" />
        </mxCell>
        <mxCell id="NCIjhWGpIYJCHgi4TV7V-47" value="" style="edgeStyle=orthogonalEdgeStyle;rounded=0;orthogonalLoop=1;jettySize=auto;html=1;" parent="NCIjhWGpIYJCHgi4TV7V-1" target="NCIjhWGpIYJCHgi4TV7V-56" edge="1">
          <mxGeometry relative="1" as="geometry">
            <mxPoint x="3.0049999999998818" y="935" as="sourcePoint" />
          </mxGeometry>
        </mxCell>
        <mxCell id="NCIjhWGpIYJCHgi4TV7V-50" value="&lt;div&gt;Text may contain more mistakes, spelling errors and unrecognized words.&lt;br&gt;&lt;/div&gt;" style="text;html=1;align=center;verticalAlign=middle;whiteSpace=wrap;rounded=0;fontSize=12;fontFamily=Times New Roman;fillColor=#ffffff;" parent="NCIjhWGpIYJCHgi4TV7V-1" vertex="1">
          <mxGeometry x="-143" y="680" width="150" height="40" as="geometry" />
        </mxCell>
        <mxCell id="NCIjhWGpIYJCHgi4TV7V-51" value="&lt;div&gt;Data extracted may not make sense as OCR prediction is not consistent.&lt;br&gt;&lt;/div&gt;" style="text;html=1;strokeColor=none;align=center;verticalAlign=middle;whiteSpace=wrap;rounded=0;fontSize=12;fontFamily=Times New Roman;fillColor=#ffffff;" parent="NCIjhWGpIYJCHgi4TV7V-1" vertex="1">
          <mxGeometry x="-136" y="761.5" width="136" height="51" as="geometry" />
        </mxCell>
        <mxCell id="NCIjhWGpIYJCHgi4TV7V-52" value="&lt;div&gt;Images scanned with dpi&lt;/div&gt;&lt;div&gt; settings other than 300 &lt;br&gt;&lt;/div&gt;&lt;div&gt;may makeit harder for &lt;br&gt;&lt;/div&gt;&lt;div&gt;OCR to function properly. &lt;br&gt;&lt;/div&gt;" style="text;strokeColor=none;align=center;verticalAlign=middle;rounded=0;fontSize=12;textDirection=ltr;html=1;whiteSpace=wrap;labelBorderColor=none;labelBackgroundColor=none;fontStyle=0;fontFamily=Times New Roman;fillColor=#ffffff;" parent="NCIjhWGpIYJCHgi4TV7V-1" vertex="1">
          <mxGeometry x="-138" y="597.5" width="138.06" height="52.5" as="geometry" />
        </mxCell>
        <mxCell id="NCIjhWGpIYJCHgi4TV7V-53" value="" style="edgeStyle=orthogonalEdgeStyle;rounded=0;orthogonalLoop=1;jettySize=auto;html=1;" parent="NCIjhWGpIYJCHgi4TV7V-1" source="NCIjhWGpIYJCHgi4TV7V-54" target="NCIjhWGpIYJCHgi4TV7V-30" edge="1">
          <mxGeometry relative="1" as="geometry" />
        </mxCell>
        <mxCell id="NCIjhWGpIYJCHgi4TV7V-54" value="Accuracy of prediction is on average greater than 85%" style="whiteSpace=wrap;html=1;rounded=1;fontFamily=Times New Roman;strokeColor=#6c8ebf;fillColor=#dae8fc;spacingTop=-1;spacingLeft=1;" parent="NCIjhWGpIYJCHgi4TV7V-1" vertex="1">
          <mxGeometry x="300.34499999999997" y="1250" width="120" height="60" as="geometry" />
        </mxCell>
        <mxCell id="NCIjhWGpIYJCHgi4TV7V-56" value="&lt;div&gt;Accuracy of prediction &lt;br&gt;&lt;/div&gt;&lt;div&gt;varies from 30% to 80%.&lt;/div&gt;" style="whiteSpace=wrap;html=1;rounded=1;fontFamily=Times New Roman;strokeColor=#6c8ebf;fillColor=#dae8fc;spacingTop=-1;spacingLeft=1;" parent="NCIjhWGpIYJCHgi4TV7V-1" vertex="1">
          <mxGeometry x="-56.995000000000005" y="996" width="120" height="60" as="geometry" />
        </mxCell>
        <mxCell id="NCIjhWGpIYJCHgi4TV7V-58" value="Accuracy of prediction varies widely ranging from 10% to 70%." style="whiteSpace=wrap;html=1;rounded=1;fontFamily=Times New Roman;strokeColor=#6c8ebf;fillColor=#dae8fc;spacingTop=-1;spacingLeft=1;" parent="NCIjhWGpIYJCHgi4TV7V-1" vertex="1">
          <mxGeometry x="649.245" y="996" width="120" height="60" as="geometry" />
        </mxCell>
        <mxCell id="NCIjhWGpIYJCHgi4TV7V-59" value="" style="endArrow=classic;html=1;exitX=0.5;exitY=1;exitDx=0;exitDy=0;entryX=0.5;entryY=0;entryDx=0;entryDy=0;fontFamily=Times New Roman;" parent="NCIjhWGpIYJCHgi4TV7V-1" target="NCIjhWGpIYJCHgi4TV7V-54" edge="1">
          <mxGeometry relative="1" as="geometry">
            <mxPoint x="360.4949999999999" y="1186" as="sourcePoint" />
            <mxPoint x="541.0050000000001" y="1194.75" as="targetPoint" />
            <Array as="points" />
          </mxGeometry>
        </mxCell>
        <mxCell id="NCIjhWGpIYJCHgi4TV7V-60" value="&lt;div&gt;Stored in database or&lt;/div&gt;&lt;div&gt; exported as csv or excel file.&lt;/div&gt;" style="edgeLabel;resizable=0;html=1;align=left;verticalAlign=middle;fontSize=12;fontFamily=Times New Roman;" parent="NCIjhWGpIYJCHgi4TV7V-59" connectable="0" vertex="1">
          <mxGeometry relative="1" as="geometry">
            <mxPoint x="-58.06999999999999" y="-2.75" as="offset" />
          </mxGeometry>
        </mxCell>
        <mxCell id="jZBGwwbRQlxu5n_X0xOK-0" value="Yes" style="text;html=1;strokeColor=none;fillColor=none;align=center;verticalAlign=middle;whiteSpace=wrap;rounded=0;fontFamily=Times New Roman;" vertex="1" parent="NCIjhWGpIYJCHgi4TV7V-1">
          <mxGeometry x="370" y="297" width="40" height="20" as="geometry" />
        </mxCell>
        <mxCell id="jZBGwwbRQlxu5n_X0xOK-14" value="" style="edgeStyle=orthogonalEdgeStyle;rounded=0;orthogonalLoop=1;jettySize=auto;html=1;fontFamily=Helvetica;strokeColor=#006600;" edge="1" parent="NCIjhWGpIYJCHgi4TV7V-1" source="jZBGwwbRQlxu5n_X0xOK-4" target="jZBGwwbRQlxu5n_X0xOK-13">
          <mxGeometry relative="1" as="geometry" />
        </mxCell>
        <mxCell id="jZBGwwbRQlxu5n_X0xOK-15" style="edgeStyle=orthogonalEdgeStyle;rounded=0;orthogonalLoop=1;jettySize=auto;html=1;exitX=0.75;exitY=1;exitDx=0;exitDy=0;entryX=0.75;entryY=0;entryDx=0;entryDy=0;fontFamily=Times New Roman;strokeColor=#000066;" edge="1" parent="NCIjhWGpIYJCHgi4TV7V-1" source="jZBGwwbRQlxu5n_X0xOK-4" target="jZBGwwbRQlxu5n_X0xOK-13">
          <mxGeometry relative="1" as="geometry" />
        </mxCell>
        <mxCell id="jZBGwwbRQlxu5n_X0xOK-17" style="edgeStyle=orthogonalEdgeStyle;rounded=0;orthogonalLoop=1;jettySize=auto;html=1;exitX=0.25;exitY=1;exitDx=0;exitDy=0;entryX=0.25;entryY=0;entryDx=0;entryDy=0;fontFamily=Helvetica;strokeColor=#990000;" edge="1" parent="NCIjhWGpIYJCHgi4TV7V-1" source="jZBGwwbRQlxu5n_X0xOK-4" target="jZBGwwbRQlxu5n_X0xOK-13">
          <mxGeometry relative="1" as="geometry" />
        </mxCell>
        <mxCell id="jZBGwwbRQlxu5n_X0xOK-4" value="&lt;div&gt;Text Extraction using OCR&lt;/div&gt;" style="rounded=1;whiteSpace=wrap;html=1;align=center;fillColor=#dae8fc;strokeColor=#6c8ebf;fontFamily=Times New Roman;fontStyle=0;arcSize=20;" vertex="1" parent="NCIjhWGpIYJCHgi4TV7V-1">
          <mxGeometry x="118.59" y="730" width="483.31" height="80" as="geometry" />
        </mxCell>
        <mxCell id="jZBGwwbRQlxu5n_X0xOK-6" value="&lt;br&gt;&lt;div style=&quot;font-size: 12px&quot;&gt;Image is enhanced and fed to OCR such that its easier to recognize text.&lt;br style=&quot;font-size: 12px&quot;&gt;&lt;/div&gt;" style="text;html=1;strokeColor=none;align=center;verticalAlign=middle;whiteSpace=wrap;rounded=0;fillColor=#ffffff;spacingTop=-14;fontFamily=Times New Roman;spacing=2;" vertex="1" parent="NCIjhWGpIYJCHgi4TV7V-1">
          <mxGeometry x="226" y="673" width="270" height="29" as="geometry" />
        </mxCell>
        <mxCell id="KJnKXskfay7dMqturbft-2" value="" style="edgeStyle=orthogonalEdgeStyle;rounded=0;orthogonalLoop=1;jettySize=auto;html=1;fontFamily=Helvetica;strokeColor=#006600;" edge="1" parent="NCIjhWGpIYJCHgi4TV7V-1" source="jZBGwwbRQlxu5n_X0xOK-13" target="KJnKXskfay7dMqturbft-0">
          <mxGeometry relative="1" as="geometry" />
        </mxCell>
        <mxCell id="KJnKXskfay7dMqturbft-3" style="edgeStyle=orthogonalEdgeStyle;rounded=0;orthogonalLoop=1;jettySize=auto;html=1;exitX=0.75;exitY=1;exitDx=0;exitDy=0;entryX=0.75;entryY=0;entryDx=0;entryDy=0;fontFamily=Times New Roman;strokeColor=#000066;" edge="1" parent="NCIjhWGpIYJCHgi4TV7V-1" source="jZBGwwbRQlxu5n_X0xOK-13" target="KJnKXskfay7dMqturbft-0">
          <mxGeometry relative="1" as="geometry" />
        </mxCell>
        <mxCell id="KJnKXskfay7dMqturbft-4" style="edgeStyle=orthogonalEdgeStyle;rounded=0;orthogonalLoop=1;jettySize=auto;html=1;exitX=0.25;exitY=1;exitDx=0;exitDy=0;entryX=0.25;entryY=0;entryDx=0;entryDy=0;fontFamily=Helvetica;strokeColor=#990000;" edge="1" parent="NCIjhWGpIYJCHgi4TV7V-1" source="jZBGwwbRQlxu5n_X0xOK-13" target="KJnKXskfay7dMqturbft-0">
          <mxGeometry relative="1" as="geometry" />
        </mxCell>
        <mxCell id="jZBGwwbRQlxu5n_X0xOK-13" value="Text Processing" style="rounded=1;whiteSpace=wrap;html=1;align=center;fillColor=#dae8fc;strokeColor=#6c8ebf;fontFamily=Times New Roman;fontStyle=0;arcSize=20;" vertex="1" parent="NCIjhWGpIYJCHgi4TV7V-1">
          <mxGeometry x="118.59" y="905" width="483.31" height="80" as="geometry" />
        </mxCell>
        <mxCell id="NCIjhWGpIYJCHgi4TV7V-41" value="&lt;div&gt;Text extracted has very minimal &lt;br&gt;&lt;/div&gt;&lt;div&gt;mistakes.&lt;/div&gt;" style="text;html=1;strokeColor=none;align=center;verticalAlign=middle;whiteSpace=wrap;rounded=0;fontSize=12;fontFamily=Times New Roman;fillColor=#FFFFFF;spacingTop=-2;" parent="NCIjhWGpIYJCHgi4TV7V-1" vertex="1">
          <mxGeometry x="315" y="835" width="94.5" height="40" as="geometry" />
        </mxCell>
        <mxCell id="cw3jNOMYKDkwtxb9M9FK-0" value="&lt;div&gt;Text may contain &lt;br&gt;&lt;/div&gt;&lt;div&gt;more errors and&lt;/div&gt;&lt;div&gt; spelling mistakes.&lt;br&gt;&lt;/div&gt;" style="text;html=1;align=center;verticalAlign=middle;whiteSpace=wrap;rounded=0;fontSize=12;fontFamily=Times New Roman;fillColor=#ffffff;spacingTop=-2;" vertex="1" parent="NCIjhWGpIYJCHgi4TV7V-1">
          <mxGeometry x="191" y="835" width="98.5" height="40" as="geometry" />
        </mxCell>
        <mxCell id="n8ht3bAPHBKL745esz8h-0" value="&lt;div&gt;Text has more errors and&lt;/div&gt;&lt;div&gt; spelling mistakes.&lt;br&gt;&lt;/div&gt;" style="text;html=1;strokeColor=none;align=center;verticalAlign=middle;whiteSpace=wrap;rounded=0;fontSize=12;fontFamily=Times New Roman;fillColor=#FFFFFF;spacingTop=-2;" vertex="1" parent="NCIjhWGpIYJCHgi4TV7V-1">
          <mxGeometry x="435" y="835" width="94.5" height="40" as="geometry" />
        </mxCell>
        <mxCell id="KJnKXskfay7dMqturbft-0" value="Data Storage" style="shape=parallelogram;perimeter=parallelogramPerimeter;whiteSpace=wrap;html=1;fixedSize=1;rounded=1;strokeColor=#6c8ebf;fillColor=#dae8fc;spacingTop=-1;spacingLeft=1;fontFamily=Times New Roman;size=20;arcSize=35;" vertex="1" parent="NCIjhWGpIYJCHgi4TV7V-1">
          <mxGeometry x="118.90000000000002" y="1060" width="483.31" height="80" as="geometry" />
        </mxCell>
        <mxCell id="KJnKXskfay7dMqturbft-5" value="&lt;br&gt;&lt;div style=&quot;font-size: 12px&quot;&gt;&lt;br&gt;&lt;div&gt;Extracting desired fields using advanced algorithms such as fuzzy logic&lt;br&gt;&lt;/div&gt;&lt;/div&gt;" style="text;html=1;strokeColor=none;align=center;verticalAlign=middle;whiteSpace=wrap;rounded=0;fillColor=#ffffff;spacingTop=-30;fontFamily=Times New Roman;spacing=2;" vertex="1" parent="NCIjhWGpIYJCHgi4TV7V-1">
          <mxGeometry x="223.86" y="1005.5" width="274" height="29" as="geometry" />
        </mxCell>
      </root>
    </mxGraphModel>
  </diagram>
</mxfile>
